<svg width="201" height="34" viewBox="0 0 201 34" fill="none" xmlns="http://www.w3.org/2000/svg">
<path d="M61.2881 11.424C61.3168 11.422 61.3458 11.42 61.375 11.42H78.1357C78.6878 11.4203 79.1357 11.8679 79.1357 12.42V13.0031C79.1357 13.5552 78.6878 14.0028 78.1357 14.0031H62.1953V18.5245H78.1357C78.6878 18.5248 79.1357 18.9724 79.1357 19.5245V20.1075C79.1357 20.6596 78.6878 21.1073 78.1357 21.1075H62.1953V25.6281H78.1357C78.6878 25.6283 79.1357 26.076 79.1357 26.6281V27.2111C79.1357 27.7632 78.6878 28.2108 78.1357 28.2111H61.0518C60.9086 28.211 60.7713 28.1867 60.6426 28.1437C60.4781 28.1858 60.3065 28.2111 60.1289 28.2111C59.8436 28.211 59.6123 27.9798 59.6123 27.6945V12.42C59.6123 11.8678 60.06 11.4201 60.6123 11.42H61.1953C61.2265 11.42 61.2576 11.4212 61.2881 11.424Z" fill="black"/>
<path d="M101.416 11.42C104.091 11.4203 106.259 13.5889 106.259 16.2638C106.259 18.6733 104.5 20.671 102.195 21.0441C102.302 21.1699 102.4 21.3068 102.483 21.4562L105.428 26.7228C105.8 27.3894 105.318 28.211 104.555 28.2111H103.988C103.63 28.211 103.299 28.0189 103.121 27.7081L99.3359 21.1075H86.0908V27.2111C86.0908 27.7633 85.6431 28.2111 85.0908 28.2111H84.5078C83.9555 28.2111 83.5078 27.7633 83.5078 27.2111V12.42C83.5078 11.8678 83.9555 11.4201 84.5078 11.42H101.416ZM86.0908 18.5245H97.1328L97.1318 18.5236H101.415C102.663 18.5235 103.676 17.512 103.676 16.2638C103.676 15.0156 102.663 14.0031 101.415 14.0031H86.0908V18.5245Z" fill="black"/>
<rect x="145.978" y="11.42" width="16.7914" height="2.5833" rx="1" transform="rotate(90 145.978 11.42)" fill="black"/>
<path d="M191.831 11.42C196.468 11.4203 200.226 15.179 200.227 19.8156C200.227 24.4522 196.468 28.2108 191.831 28.2111C191.763 28.2111 191.696 28.2068 191.629 28.2052C191.589 28.2089 191.549 28.2111 191.508 28.2111H178.915C178.797 28.2111 178.682 28.194 178.573 28.1642C178.433 28.1941 178.288 28.2111 178.14 28.2111C177.854 28.211 177.623 27.9798 177.623 27.6945V11.9366C177.623 11.6513 177.854 11.4201 178.14 11.42C178.289 11.42 178.434 11.436 178.574 11.4659C178.683 11.4364 178.797 11.42 178.915 11.42H191.831ZM180.206 25.6281H191.831L192.13 25.6212C195.201 25.4654 197.643 22.9252 197.644 19.8156C197.643 16.706 195.201 14.1667 192.13 14.0109L191.831 14.0031H180.206V25.6281Z" fill="black"/>
<path d="M44.959 24.4991L52.5107 11.42H55.4941L46.1748 27.5607C45.9282 27.9879 45.4745 28.22 45.0137 28.2052C44.9738 28.2089 44.9334 28.2111 44.8926 28.2111C44.8234 28.2111 44.7557 28.204 44.6895 28.1935C44.3071 28.1414 43.952 27.9207 43.7441 27.5607L34.4248 11.42H37.4082L44.959 24.4991Z" fill="black"/>
<path d="M152.082 11.42C152.207 11.42 152.327 11.4435 152.438 11.4855C152.547 11.4438 152.666 11.4201 152.791 11.42H153.374C153.482 11.4201 153.587 11.4371 153.685 11.4689C153.91 11.4368 154.14 11.4201 154.374 11.42C155.964 11.4201 157.377 12.1864 158.26 13.3702L167.613 24.9816C167.709 25.0772 167.806 25.1439 167.901 25.1954C168.274 25.4663 168.732 25.628 169.228 25.6281C169.234 25.6281 169.241 25.6272 169.247 25.6271H170.52V12.42C170.52 11.8678 170.967 11.4201 171.52 11.42H172.103C172.655 11.42 173.103 11.8678 173.103 12.42V27.2111C173.103 27.7633 172.655 28.2111 172.103 28.2111H171.52C171.394 28.211 171.275 28.1868 171.164 28.1447C171.054 28.1864 170.935 28.2111 170.811 28.2111H170.228C170.119 28.211 170.015 28.1941 169.917 28.1622C169.692 28.1943 169.461 28.2111 169.228 28.2111C167.636 28.2109 166.224 27.4434 165.341 26.2579L157.604 16.587V16.5822C156.889 15.7088 156.147 14.8088 155.988 14.6495C155.893 14.5539 155.796 14.4872 155.7 14.4357C155.327 14.1648 154.87 14.0031 154.374 14.0031C154.368 14.0031 154.361 14.004 154.354 14.004H153.082V27.2111C153.082 27.7633 152.634 28.2111 152.082 28.2111H151.499C150.947 28.211 150.499 27.7633 150.499 27.2111V12.42C150.499 11.8678 150.947 11.4201 151.499 11.42H152.082Z" fill="black"/>
<path d="M114.655 11.42C116.448 11.4202 118.012 12.3952 118.85 13.8429L118.853 13.8419L125.065 24.2443L131.123 13.8419L131.127 13.8429C131.964 12.3951 133.529 11.4202 135.321 11.42H139.196V28.2111H136.613V14.004H135.341C135.334 14.0039 135.328 14.0031 135.321 14.0031C134.824 14.0031 134.364 14.1653 133.991 14.4376C133.897 14.489 133.802 14.5551 133.707 14.6495C133.645 14.7111 133.497 14.8836 133.296 15.1222L126.118 27.5656L126.112 27.5529C125.891 27.9455 125.471 28.2111 124.988 28.2111C124.507 28.211 124.087 27.9475 123.865 27.5568L123.858 27.5656L116.683 15.1251C116.481 14.885 116.331 14.7114 116.27 14.6495C116.174 14.5538 116.077 14.4873 115.981 14.4357C115.609 14.1648 115.151 14.0032 114.655 14.0031C114.649 14.0031 114.642 14.0039 114.636 14.004H113.363V28.2111H110.78V11.42H114.655Z" fill="black"/>
<path d="M22.833 25.3971C22.4218 25.7545 21.8953 25.9513 21.3505 25.9513H12.4473C12.4304 25.95 12.4147 25.9422 12.4036 25.9294L11.3625 24.732C10.6373 23.8978 10.1842 22.6372 11.0411 21.9389C11.374 21.6677 11.7855 21.4893 12.2363 21.4435L12.4668 21.4318C12.4744 21.4317 12.4835 21.4309 12.4922 21.4308H21.3505C23.4413 21.4308 24.4113 24.0257 22.833 25.3971ZM14.4297 1.47083C16.9309 -0.702462 20.72 -0.436536 22.8936 2.06458L30.4844 10.799C32.4443 13.0543 32.4198 16.3559 30.5622 18.5768C30.2634 18.9341 29.6934 18.848 29.2275 18.8478H12.4668L12.2363 18.8361C11.0968 18.7202 10.2073 17.7571 10.207 16.587C10.2073 15.417 11.0968 14.4549 12.2363 14.339L12.4668 14.3273C12.4744 14.3272 12.4835 14.3264 12.4922 14.3263H29.2275C29.7796 14.3261 30.2275 13.8784 30.2275 13.3263V12.7433C30.2275 12.1912 29.7796 11.7435 29.2275 11.7433H12.4678C9.79288 11.7435 7.62405 13.9121 7.62402 16.587C7.62404 17.7715 8.04959 18.8568 8.75578 19.6984C8.96681 19.9499 8.96748 20.327 8.75644 20.5785C8.50947 20.8728 8.04535 20.9155 7.79336 20.6255L5.10059 17.5265C2.9272 15.0253 3.19319 11.2352 5.69434 9.06165L14.4297 1.47083Z" fill="url(#paint0_linear_7146_868)"/>
<path d="M5.21289 7.66248C6.39282 4.56611 9.85959 3.01198 12.9561 4.19177L25.5996 9.01013C26.9905 9.54008 28.069 10.5316 28.7295 11.7435H12.4668C9.79189 11.7437 7.62307 13.9123 7.62305 16.5873C7.62314 17.9905 8.22028 19.2545 9.17383 20.139C8.22015 21.0237 7.62305 22.2884 7.62305 23.6918C7.62339 26.1414 9.44287 28.1641 11.8037 28.4877C11.9121 28.5172 12.0258 28.5345 12.1436 28.5345H12.4316C12.4433 28.5346 12.4551 28.5355 12.4668 28.5355C12.4755 28.5355 12.4845 28.5346 12.4932 28.5345H24.5811L24.2529 29.3969C23.0731 32.4933 19.6063 34.0472 16.5098 32.8676L3.86523 28.0502C0.768898 26.8703 -0.785011 23.4034 0.394531 20.307L5.21289 7.66248ZM25.5654 25.9515H12.4668C11.2189 25.9513 10.2066 24.9396 10.2061 23.6918C10.2062 22.4437 11.2187 21.4313 12.4668 21.431H27.2881L25.5654 25.9515ZM29.4541 14.2992C29.4975 15.1107 29.3782 15.944 29.0703 16.7523L28.2715 18.848H16.749L16.75 18.847H12.4668C11.2188 18.8468 10.2064 17.8352 10.2061 16.5873C10.2062 15.3392 11.2187 14.3268 12.4668 14.3265H29.2266C29.3049 14.3265 29.381 14.3162 29.4541 14.2992Z" fill="url(#paint1_linear_7146_868)"/>
<defs>
<linearGradient id="paint0_linear_7146_868" x1="9.88234" y1="5.00767" x2="25.5143" y2="23.1849" gradientUnits="userSpaceOnUse">
<stop stop-color="#2BFB89"/>
<stop offset="1" stop-color="#BCEA26"/>
</linearGradient>
<linearGradient id="paint1_linear_7146_868" x1="2.61709" y1="13.9134" x2="26.8464" y2="23.1444" gradientUnits="userSpaceOnUse">
<stop stop-color="#2D74F7"/>
<stop offset="1" stop-color="#24FFFF"/>
</linearGradient>
</defs>
</svg>
